<?xml version="1.0" encoding="UTF-8"?>
<svg id="Layer_1" data-name="Layer 1" xmlns="http://www.w3.org/2000/svg" viewBox="0 0 360 491">
  <defs>
    <style>
      .cls-1 {
        fill: #be2226;
      }

      .cls-2 {
        fill: #e4e5e4;
      }

      .cls-3 {
        fill: #a6a5a5;
      }

      .cls-4 {
        fill: #bd2226;
      }

      .cls-5 {
        fill: #272626;
      }

      .cls-6 {
        fill: #b12023;
      }

      .cls-7 {
        fill: #313131;
      }

      .cls-8 {
        fill: #2d2e2d;
      }

      .cls-9 {
        fill: #231f20;
      }

      .cls-10 {
        fill: #e1e2e1;
      }

      .cls-11 {
        fill: #f6eb16;
      }

      .cls-12, .cls-13 {
        fill: #fff;
      }

      .cls-14 {
        fill: #b1b1b1;
      }

      .cls-15 {
        fill: #a7a5a5;
      }

      .cls-16 {
        fill: #e2e2e2;
      }

      .cls-17 {
        fill: #3d3d3d;
      }

      .cls-18 {
        fill: #9d9d9d;
      }

      .cls-19 {
        fill: #ccc;
      }

      .cls-20 {
        fill: #0d0d0d;
      }

      .cls-21 {
        fill: #c32226;
      }

      .cls-22 {
        fill: #dfdfdf;
      }

      .cls-23 {
        fill: #c4c4c4;
      }

      .cls-24 {
        fill: #ec272a;
      }

      .cls-25 {
        fill: #292929;
      }

      .cls-26 {
        fill: #cecece;
      }

      .cls-27 {
        fill: #3a3b3a;
      }

      .cls-28 {
        fill: #c9852a;
      }

      .cls-29 {
        fill: #131313;
      }

      .cls-30 {
        fill: #fefdfd;
      }

      .cls-31 {
        fill: #cecaca;
      }

      .cls-32 {
        fill: #c7c7c7;
      }

      .cls-33 {
        fill: #e62629;
      }

      .cls-34 {
        fill: #8c8c8c;
      }

      .cls-35 {
        fill: #3a3a3a;
      }

      .cls-36 {
        fill: #e4e4e4;
      }

      .cls-37 {
        fill: #ee272a;
      }

      .cls-38 {
        fill: #e4e5e5;
      }

      .cls-39 {
        fill: #ba2226;
      }

      .cls-40 {
        fill: #facacb;
      }

      .cls-41 {
        fill: #020101;
      }

      .cls-42 {
        fill: #f4f4f4;
      }

      .cls-43 {
        fill: #010101;
      }

      .cls-44 {
        fill: #2b2a2a;
      }

      .cls-45 {
        fill: #2a2a2a;
      }

      .cls-46 {
        fill: #cacaca;
      }

      .cls-47 {
        fill: #ed3630;
      }

      .cls-48 {
        fill: #ed272a;
      }

      .cls-49 {
        fill: #ca2227;
      }

      .cls-13 {
        stroke: #231f20;
        stroke-miterlimit: 10;
        stroke-width: 3px;
      }

      .cls-50 {
        fill: #dcdbdb;
      }

      .cls-51 {
        fill: #191a19;
      }

      .cls-52 {
        fill: #353635;
      }

      .cls-53 {
        fill: #504e4d;
      }

      .cls-54 {
        fill: #dcdcdb;
      }

      .cls-55 {
        fill: #dddcdc;
      }

      .cls-56 {
        fill: #161616;
      }
    </style>
  </defs>
  <rect class="cls-13" x="1.5" y="1.5" width="357" height="488"/>
  <rect class="cls-13" x="6.5" y="11.5" width="347" height="87" rx="19.31" ry="19.31"/>
  <rect class="cls-13" x="23.5" y="111.5" width="78" height="79"/>
  <rect class="cls-13" x="101.5" y="111.5" width="78" height="79"/>
  <rect class="cls-13" x="178.5" y="111.5" width="78" height="79"/>
  <rect class="cls-13" x="23.5" y="190.5" width="78" height="79"/>
  <rect class="cls-13" x="101.5" y="190.5" width="78" height="79"/>
  <rect class="cls-13" x="178.5" y="190.5" width="78" height="79"/>
  <rect class="cls-13" x="23.5" y="268.5" width="78" height="79"/>
  <rect class="cls-13" x="101.5" y="268.5" width="78" height="79"/>
  <rect class="cls-13" x="178.5" y="268.5" width="78" height="79"/>
  <rect class="cls-13" x="101.5" y="347.5" width="78" height="79"/>
  <rect class="cls-13" x="272.5" y="111.5" width="81" height="278" rx="16.77" ry="16.77"/>
  <rect class="cls-13" x="272.5" y="402.5" width="81" height="81"/>
  <g>
    <path class="cls-12" d="M56.86,449.53v13.07H8v-33.6h48.86v16.92l-4.57-.04v-4.43s.05-.06.04-.1l-7.92-.84c-2.08.09-4.17.21-6.26.32,0-.02.03-.03.04-.04,0,0,.08-.01.02-.08-.55-.52-1.08-1.05-1.61-1.59l.15-.26-.03-.02c-.16-.28-.46-.35-.75-.3l.24.26c-.33-.04-.61-.04-.79-.36l.48.02c-.13-.09-.29-.35-.43-.41-.26-.1-1.12-.15-1.46-.21-.07-.01-.15.01-.22,0,0,0-.07-.03-.08-.04-.05-.03-.12-.17-.27-.15-1.66-.17-3.3-.51-4.96-.68-.12-.01-.29-.05-.17.11-.97-.13-1.93-.26-2.9-.4-.01,0-.03,0-.04,0l-.12-.14,1.39.18-.79-.97s.1-.13.12-.14c.05-.03.16-.02.2-.1l-.81-.98c-.11-.09-.25.06-.34.12l-.07.03-1.04-1.24c-.1-.04-.33.27-.46.14l-.76-.91-.38.19-.41-.47-.36.23-.4-.47-.39.19-.37-.43-.36.19-.23-.23-.36.23-.2-.22-.39.19-.37-.43-.35.19-.18-.23c.08-.05.19-.19.32-.2l-.1-.2-.37.16.12.24c-.06.04-.22.08-.24.15-.03.11.09.18.12.25.27.61.59,1.2.88,1.8l2.61,3.36c-.08.17-.15.39-.24.56l-2.26-2.94c.05-.03.12-.04.16-.1l-1.22-1.57-.17.1,1.19,1.57c-.19.12-.37.26-.56.38l1.03,1.36-.35.27.4.55-1.15.74c-.22.07-.45.09-.68.12l.02-.16,1.21-.72-.44-.58.39-.22v-.09s-.99-1.32-.99-1.32l.35-.24-.79-1.03-.4.16-.91-1.24-.44.2-.72-1.01-.41.24-.37-.47-.39.23-.34-.46c-.12-.07-.29.14-.42.17-.03,0-.27-.34-.3-.39-.02-.03-.06-.09-.04-.12l.38-.2.16.24.4-.24.36.47.41-.18.32.46.41-.23.73.97.4-.16.93,1.25c.08-.12.58-.25.53-.41l-2.11-2.72c-.12.06-.62.42-.7.38l-1.34-1.77-2.59,1.43.36.48.42-.24.16.23.41-.18.32.41-.16.17-.24.12-.18-.24-.35.2-.2-.23-.36.23-.36-.47-.36.19-.2-.19-.23.12c.4.7.86,1.36,1.29,2.03,1.38,2.11,2.82,4.19,4.25,6.27,0,.03.04.1.04.18,0,.78,0,1.55,0,2.33h.44s0,.4,0,.4h.77s.06-.05.1-.04l.04.52.6-.04v-.52s.24,0,.24,0v-.44s1.51-.08,1.51-.08c-.08.16-.16.32-.24.48l-.95.04v.48s-.32,0-.32,0v.52s-.56.04-.56.04v.48s-.28,0-.28,0v.52s-.32,0-.32,0v.48s-.28,0-.28,0v.48s-.28,0-.28,0v.48c-.07,0-.13,0-.2,0s-.15.02-.2-.03c-.02-.02-.18-.29-.19-.32-.02-.07-.04-.15.07-.13.02.01.15,0,.2,0v-.48s.28,0,.28,0v-.48s.32,0,.32,0v-.47s.28-.04.28-.04v-.95l-.87.04v-.48s-.56.04-.56.04c0-.08,0-.16,0-.24.13,0,.25.02.37-.04l.02-.12h-.4c0,.05,0,.11,0,.16-.41.02-.83.04-1.23.08l-1.07-1.69c-.72-.07-1.46-.14-2.18-.12l.52.85c.1.06.37-.06.47.07l1.27,2.03c.05.12-.35.03-.4.06l.35.61.47.03,1.2,1.92-.44.04.94,1.53c.18.17.92.03,1.21.12,0,.14.07.14.08.16.02.06.03.13.04.2h-.44s0-.2,0-.2h-.45s-.02.16-.02.16c-.24.02-.46-.05-.7-.04-.08,0-.16-.04-.14.08-.03,0-.05,0-.08,0-.01,0-.03,0-.04,0,0-.08,0-.16,0-.24,0-.11-.04-.18.08-.22l-1.15-1.91.44-.04-.76-1.24-.49-.05-.73-1.21c.05-.07.44.05.4-.08l-.89-1.45-.48-.08-.69-1.15c.13,0,.27.01.4-.02l-.14-.21-.39-.05.1.28c-.14,0-.35-.08-.44,0l-1.5,3.32,4.59,8.08v-.97l-2.73-4.84.13-.35-.68-1.19c-.03-.11.14-.28.13-.41-.01-.13-.33-.51-.33-.6,0-.06.11-.18.13-.26.07-.24-.4-.76-.49-1.01l.15-.34c.12.04.09.25.24.24l.14-.32.3.56c.12.1.15-.41.26-.28l3.4,5.7-.36.02v2.26c.1,0,.18.03.28.04,0,.24.04.48-.28.48v1.79c-.04-.1-.18-.23-.2-.36h-.04s0,1.55,0,1.55l.2.02.08,2.13c0,.22,0,.45,0,.67.47.05.93.18,1.39.28,0,.07,0,.14,0,.21l.06.06c.56.07,1.15.29,1.7.36.09.01.05-.05.06-.12l2.33.47.43-.07s.02-.08.02-.12c1.22.23,2.44.5,3.65.75,7.21,1.48,14.4,3.01,21.61,4.47l7.98-3.21.05-2.49,4.53-1.53.04-.16c0-1.87,0-3.75,0-5.62h.04ZM19.01,431.66l.38-.2.2.2.39-.19.37.43.39-.19.2.23.36-.22.4.47.41-.18.38.46.38-.22.79.92c.12.06.28-.24.42-.1l.97,1.14.52-.32-2.28-2.64c-.2-.12-.62.39-.78.3l-1.46-1.73-2.4,1.35.36.51ZM10.36,430.65c-.05-.06-.08-.12-.12-.18l-.37.26.17.17.38-.19c.02-.06-.04-.03-.06-.05ZM26.91,435.43s.18-.06.16-.14l-1.33-1.52c-.12.09-.19.05-.09.21.21.35.83.95,1.13,1.3.04.05.08.1.1.16-.07.05-.44.29-.46.32-.02.03-.03.05,0,.08l.86.97.91.12-1.27-1.49Z"/>
    <path class="cls-43" d="M38.15,440.83c2.09-.11,4.18-.23,6.26-.32l7.92.84s-.04.09-.04.1v4.43l4.57.04v.16c-.07.04-.04.15-.04.22-.01,1.08,0,2.16,0,3.24,0,1.87,0,3.75,0,5.62l-.04.16-4.53,1.53-.05,2.49-7.98,3.21c-7.21-1.46-14.41-2.99-21.61-4.47l-.08-.14c-.02-2.23.03-4.46,0-6.7v-2.42l4.17-7.33,2.4-.14c3-.17,6-.35,9-.52.01,0,.03,0,.04,0ZM26.95,446.08c-.16,0-.32,0-.48,0v1.15h.4v.56l.4.04v.56c.16,0,.32.03.48.04s.44.04.58.04h.75c.19,0,.48.03.7.04.17,0,.34.07.52.04v-.6h.44v-.6h.48v-1.23c-.18,0-.37,0-.56,0-1.23-.01-2.47-.06-3.69-.04ZM26.55,452.91c-.14-.01-.29-.03-.44-.04v1.71c.14.02.3.02.44.04,1.67.26,3.34.46,5.01.71v.64s.44.04.44.04v.63s.48.08.48.08v.64l.48.04c0-.2,0-.4,0-.6.02,0,.08-.02.08.02v.61s.47.08.47.08v-2.54l-.48-.04v-.64l-.48-.04v-.64c-.19,0-.37-.06-.56-.08-1.8-.23-3.63-.45-5.44-.64Z"/>
    <path class="cls-53" d="M56.86,449.53h-.04c0-1.08-.01-2.16,0-3.24,0-.07-.03-.18.04-.22v3.46Z"/>
    <path class="cls-29" d="M24.21,437.02c.54.07,1.09.13,1.63.2l-.28-.3s.13-.02.18-.02c2.62.19,5.36.88,7.99,1.07.04,0,.08,0,.12,0l-.06-.12c.06.01.15-.01.22,0,.34.05,1.2.1,1.46.21.13.05.3.32.43.41l-.48-.02c.18.32.47.31.79.36.03,0,.05,0,.08,0,.07.13.22.22.32.32.53.53,1.06,1.07,1.61,1.59.06.07-.02.07-.02.08l-13.51-1.21-6.4,11.81-.04-3.47s-.05-.02-.08-.02c-.25-.03-.57,0-.83-.04.4-.76.77-1.54,1.15-2.3l.32.36,1.06-2.06-.25-.41.86-1.68c0-.13-.3-.29-.25-.45l1.59-3.1s.25.38.34.32l.68-1.39c.14.07.85.13,1.06.15s.41.04.61.04c-.09-.11-.18-.21-.28-.32ZM35.37,438.45c-.31-.46-.94-.36-1.43-.44.29.48.96.28,1.43.44Z"/>
    <path class="cls-7" d="M11.06,433.09c-.44-.67-.9-1.33-1.29-2.03l.23-.12.2.19.36-.19.36.47.36-.23.2.23.35-.2.18.24.24-.12.24-.04c.03.05.27.38.3.39.13-.03.29-.24.42-.17l.34.46.39-.23.37.47.41-.24.72,1.01.44-.2.91,1.24.4-.16.79,1.03-.35.24.98,1.32v.09s-.39.22-.39.22l.44.58-1.21.72-.02.16c-.69.09-1.38.14-2.06.24,0,.26,0,.53,0,.79l-4.29-6.16ZM11.46,432.06l-.18-.23-.17.1.12.2-.12.12.12.27-.16.12.17.22.14-.1-.12-.29.16-.06-.16-.24.2-.1ZM12.67,432.35c-.06.05-.36.16-.34.25.06.15.44-.13.44-.16l-.1-.09ZM12.25,432.42c-.09.1-.39.14-.36.3.03.14.29-.12.36-.12v-.18ZM11.81,432.53l-.38.2.02.12.38-.2-.02-.12ZM12.73,433.17l-.06-.12-.18.1.18.25.34-.2-.07-.11-.21.08ZM13.76,433.81l-.38.23-.2-.23-.17.08.15.26-.15.1.16.26.4-.18-.06-.16.34-.2-.08-.16ZM15.3,433.81s-.14.07-.15.09l.06.1.19-.08.12.11.14-.09-.06-.13c-.16.15-.23,0-.31,0ZM14.87,434.24l-.19.14.18.21.37-.21c-.11-.15-.16-.07-.3-.02l-.06-.12ZM16.78,435c-.17.04-.2.14-.34-.03l-.18.13c.23.35.25.18.56.06l-.04-.16ZM13.95,435.35l-.05-.15c-.2.18-.29-.11-.46.1l.1.1.15-.08.12.11.13-.08ZM15.55,435.55c-.07-.05-.33.18-.41.2l-.21-.23-.17.08.16.3-.15.12.15.24.38-.22-.06-.16.32-.18s0-.14,0-.14ZM16.54,436.66l-.18-.31-.18.14.16.24-.16.16.16.26.4-.2-.04-.16-.28.08-.02-.12.14-.08ZM17.06,436.54s-.11-.15-.17-.11l-.29.19c0,.29.3-.06.46-.08ZM15.15,436.95l-.23.07.16.28.43-.2-.08-.16-.22.12-.06-.11Z"/>
    <path class="cls-7" d="M17.93,431.62l.18.23.35-.19.37.43.39-.19.2.22.36-.23.23.23.36-.19.37.43.39-.19.4.47.36-.23.41.47.38-.19.76.91c.13.13.36-.19.46-.14l1.04,1.24.07-.03c-.02.15.11.08.12-.04l.83.99s-.13.1-.12.14l.79.97-1.39-.18.12.14c-.84-.12-1.87-.19-2.67-.37-.06-.01-.14-.02-.19-.05-.03-.02-.03-.1-.06-.1-.06,0-.12.07-.16.08-.05,0-.09-.07-.15-.07-.09,0-.26.07-.37.04-.06.15-.13.29-.2.43l-3.77-4.65c-.03-.07-.14-.15-.12-.25.02-.07.17-.11.24-.15,0,0,.03,0,.04,0ZM19.49,433.17l.19-.1-.18-.21-.17.08.16.23ZM19.57,433.49s.23-.06.01-.24c-.09-.07-.12-.02-.22,0l.16.26-.15.12.16.26.18-.11c.06.22.45-.07.45-.11,0,0-.04-.13-.09-.1l-.32.19c-.06-.05-.23-.18-.17-.27ZM21.03,433.52c.03-.05,0-.12-.05-.15-.06.05-.36.17-.34.26.03.13.38-.08.39-.1ZM20.46,433.5s-.26.16-.27.17c.05.22.28,0,.4-.08,0-.08-.05-.11-.13-.09ZM21.31,434.08c-.21.17-.31-.1-.48.1l.21.21.3-.16-.04-.15ZM21.75,435.03c0-.14-.25-.26-.32-.15-.04.06.18.21.16.3-.01.06-.29.08.07.34l.33-.21c-.12-.22-.27.12-.34-.14.12-.16.22.02.31,0,.03,0,.26-.15.26-.18l-.06-.14-.41.19ZM23.38,435.39l-.06-.12-.18.1.16.26.36-.22-.1-.1-.18.08ZM25.04,436.11s-.09-.29-.24.01c.09.31.56.1.51-.07-.04-.15-.25.08-.28.06Z"/>
    <path class="cls-52" d="M20.99,437.78c-.65,1.29-1.3,2.6-1.95,3.89l-1.51.08v.44s-.24,0-.24,0v.52s-.6.04-.6.04l-.04-.52s-.08.04-.1.04h-.77v-.4s-.44,0-.44,0c0-.77,0-1.55,0-2.33,0-.07-.04-.15-.04-.18,0,0,.04-.05.04-.12,0-.26,0-.53,0-.79.68-.1,1.38-.15,2.06-.24.23-.03.46-.05.68-.12l2.9-.32Z"/>
    <path class="cls-52" d="M9.55,440.32l4.46,7.38.31.05c0,.08,0,.16,0,.24-.09,0-.19,0-.28,0v.48s-.04.04-.08.04c-.08,0-.13,0-.2-.04,0,.17,0,.34,0,.52-.09,0-.19,0-.28,0,0,.17,0,.34,0,.52-.01,0-.03,0-.04,0-.04,0-.15-.08-.24-.04,0,.11,0,.21,0,.32,0,.07,0,.13,0,.2-.09,0-.18-.05-.28-.04v-2.26l.36-.02-3.4-5.7c-.11-.14-.14.37-.26.28l-.3-.56-.14.32c-.14.01-.12-.19-.24-.24l-.15.34c.09.25.55.77.49,1.01-.02.07-.13.19-.13.26,0,.09.32.47.33.6.01.14-.16.3-.13.41l.68,1.19-.13.35,2.73,4.84v.97l-4.59-8.08,1.5-3.32Z"/>
    <path class="cls-27" d="M13.72,442.18c-.09,0-.2-.02-.28.02l1.87,2.96c-.11-.02-.09.06-.07.13,0,.03.17.3.19.32.05.05.14.03.2.03l.79,1.19c-.06.13-.35.71-.36.79-.28-.09-1.02.05-1.21-.12l-.94-1.53.44-.04-1.2-1.92-.47-.03-.35-.61s.45.06.4-.06l-1.27-2.03c-.1-.13-.38,0-.47-.07l-.52-.85c.73-.02,1.46.05,2.18.12l1.07,1.69Z"/>
    <path class="cls-52" d="M22.54,451.24c.03,2.23-.02,4.46,0,6.7l.08.14c-1.22-.25-2.43-.53-3.65-.75,0-.04,0-.08,0-.12l1.19-.24c-.08.12-.03.06.06.08.14.03.32.08.46.08s.26-.04.4-.04c0-.09,0-.19,0-.28.05,0,.11,0,.16,0v-5.64s1.27-2.26,1.27-2.26c.01.74-.01,1.47,0,2.21,0,.07.04.13.04.13Z"/>
    <path class="cls-29" d="M21.55,436.66c.07-.14.15-.28.2-.43.11.02.29-.05.37-.04.06,0,.1.07.15.07.05,0,.11-.08.16-.08.03,0,.03.08.06.1.05.03.13.04.19.05.8.18,1.83.25,2.67.37.01,0,.03,0,.04,0l.12.16-1.63-.2c.1.12.21.24.32.36-.54-.07-1.08-.16-1.63-.2-.02,0-.05-.04-.08-.04l-.44.95-.36-.36-2.01,4.09.25.37-1.05,2.05c-.05.13.24.35.25.42,0,.02-.19.38-.22.44-.03.05-.2.37-.23.37-.06-.04-.22-.37-.3-.32l-1.37,2.74c-.04.05-.04.04-.08,0-.08-.09-.13-.22-.2-.32-.12.19-.23.4-.34.6l-.28-.04s-.09-.02-.08-.16c0-.09.29-.66.36-.79.76-1.57,1.6-3.12,2.38-4.69.08-.16.16-.32.24-.48.65-1.3,1.29-2.6,1.95-3.89,0-.01.03-.02.04-.04.08-.17.15-.39.24-.56s.19-.34.28-.52Z"/>
    <path class="cls-17" d="M12.25,431.34l.16-.17-.32-.41-.41.18-.16-.23-.42.24-.36-.48,2.59-1.43,1.34,1.77c.08.04.58-.32.7-.38l2.11,2.72c.04.16-.45.29-.53.41l-.93-1.25-.4.16-.73-.97-.41.23-.32-.46-.41.18-.36-.47-.4.24-.16-.24-.38.2s.02.09.04.12l-.24.04Z"/>
    <path class="cls-17" d="M19.01,431.66l-.36-.51,2.4-1.35,1.46,1.73c.16.09.58-.43.78-.3l2.28,2.64-.52.32-.97-1.14c-.14-.13-.3.17-.42.1l-.79-.92-.38.22-.38-.46-.41.18-.4-.47-.36.22-.2-.23-.39.19-.37-.43-.39.19-.2-.2-.38.2Z"/>
    <path class="cls-51" d="M14.44,447.98s.08.04.14.04c.54.02,1.08.02,1.61.08,0,.16,0,.32,0,.48-.48-.11-1.1,0-1.59-.12v.28s-.32,0-.32,0v.28s-.16,0-.16,0v.28s-.16,0-.16,0v.28s-.16-.04-.16-.04v.28s-.16,0-.16,0v.28s-.16,0-.16,0v.56l-.16-.04.04,2.78h.16s0,.6,0,.6h.16s0,.27,0,.27l.16.07v.25s.16,0,.16,0v.32s.16,0,.16,0c0,.19-.05.29.16.34v.25s.3.08.3.08l.02.28,1.55.28v.52l-1.71-.36s-.03.05-.08-.08c-.02-.04-.04-.12-.04-.16-.01-.1.01-.21,0-.32l-.27-.05v-.51s-.32-.04-.32-.04c0,.09,0,.19,0,.28.02.35.04.17.24.24.01,0,.06.06.08.08v.47s.28.04.28.04c0,.08,0,.19,0,.28-.46-.09-.92-.23-1.39-.28,0-.22,0-.45,0-.67,0-.53,0-1.06,0-1.59h.24c.02-.23.02-.45-.24-.52,0-.29.05-1.02-.04-1.23v-1.79c.32,0,.27-.24.28-.48.09,0,.19,0,.28,0,0-.16,0-.32,0-.48.09,0,.19,0,.28,0,0-.17,0-.34,0-.52.01,0,.03,0,.04,0,.07,0,.15.06.24.04v-.52s.28,0,.28,0c0-.1-.01-.21,0-.32,0-.05.06-.13.04-.2.03,0,.05,0,.08,0ZM13.2,454.18c0,.24-.04.47.28.32l-.02-.44-.26-.04c0,.05,0,.11,0,.16ZM13.68,455.09s.05,0,.08,0v-.45c-.02-.07-.18-.08-.24-.07-.08.03-.03.37-.03.45l.06.06s.09,0,.13,0Z"/>
    <path class="cls-52" d="M18.81,442.14c-.78,1.56-1.62,3.11-2.38,4.69l-.79-1.19c.07,0,.13,0,.2,0v-.48s.28,0,.28,0v-.48s.28,0,.28,0v-.48s.32,0,.32,0v-.52s.28,0,.28,0v-.48s.56-.04.56-.04v-.52s.32,0,.32,0v-.48s.95-.04.95-.04Z"/>
    <path class="cls-35" d="M9.99,440.32s.03,0,.04,0l.69,1.15.48.08.89,1.45c.04.13-.35.01-.4.08l.73,1.21.49.05.76,1.24-.44.04,1.15,1.91c-.12.04-.08.11-.08.22l-.31-.05-4.46-7.38c.08-.08.3,0,.44,0Z"/>
    <path class="cls-52" d="M14.95,442.11c0,.08,0,.16,0,.24l.56-.04v.48s.87-.04.87-.04v.95l-.28.04v.47s-.32,0-.32,0v.48s-.28,0-.28,0v.48s-.17.01-.2,0l-1.87-2.96c.08-.04.19-.01.28-.02.41-.04.82-.06,1.23-.08Z"/>
    <path class="cls-20" d="M38.19,440.79s-.03.02-.04.04c-.01,0-.03,0-.04,0-.15-.13-.33-.03-.5-.04-.47-.02-.95-.07-1.43-.04l-11.4-1.03-6.18,11.39-.08.07c-.01.06,0,.11,0,.17,0,.01,0,.03,0,.04h-.24l6.4-11.81,13.51,1.21Z"/>
    <path class="cls-17" d="M18.77,434.8l2.26,2.94s-.03.03-.04.04l-2.9.32,1.15-.74-.4-.55.35-.27-1.03-1.36c.19-.12.37-.26.56-.38,0,0,.03,0,.04,0Z"/>
    <path class="cls-5" d="M21.55,436.66c-.09.17-.19.34-.28.52l-2.61-3.36c-.29-.6-.61-1.19-.88-1.8l3.77,4.65Z"/>
    <path class="cls-42" d="M24.21,437.02c-.11-.12-.22-.23-.32-.36l1.63.2-.12-.16c.97.13,1.93.27,2.9.4,1.8.24,3.6.49,5.4.71.01,0,.08.04.08.04l.06.12s-.08,0-.12,0c-2.62-.2-5.37-.88-7.99-1.07-.05,0-.15-.02-.18.02l.28.3c-.54-.07-1.09-.13-1.63-.2Z"/>
    <path class="cls-17" d="M26.91,435.43l1.27,1.49-.91-.12-.86-.97s-.02-.05,0-.08c.02-.02.39-.27.46-.32,0,0,.03,0,.04,0Z"/>
    <path class="cls-44" d="M15.35,439.25c0,.07-.04.11-.04.12-1.43-2.08-2.87-4.16-4.25-6.27l4.29,6.16Z"/>
    <path class="cls-10" d="M33.7,437.82c-1.8-.23-3.6-.47-5.4-.71-.12-.17.06-.13.17-.11,1.66.17,3.3.51,4.96.68.15-.02.22.12.27.15Z"/>
    <path class="cls-50" d="M16.18,456.64s0,.03,0,.04,0,.03,0,.04l-.56-.12v.16c-.19-.04-.37-.05-.56.02l1.11.22s0,.03,0,.04c0,.07.04.13-.06.12-.55-.07-1.14-.3-1.7-.36l-.06-.06c-.02-.07,0-.14,0-.21.25.05.51.07.75.16v-.2c-.16-.02-.45-.05-.59-.11-.07-.03-.04-.09-.05-.09l1.71.36Z"/>
    <path class="cls-32" d="M12.93,452.23c.09.22.04.94.04,1.23,0,.17,0,.34,0,.52,0,.53,0,1.06,0,1.59l-.08-2.13-.2-.02v-1.55h.04c.02.13.16.25.2.36Z"/>
    <path class="cls-2" d="M26.91,435.43s-.03,0-.04,0c-.02-.06-.06-.11-.1-.16-.3-.34-.92-.95-1.13-1.3-.09-.16-.03-.11.09-.21l1.33,1.52c.02.08-.11.1-.16.14Z"/>
    <path class="cls-18" d="M18.17,457.32c.16.01.28-.06.36-.08s.33.06.44.08c0,.04.02.1-.02.12l-.43.07-2.33-.47s0-.03,0-.04c0-.03,0-.05,0-.08.65.04,1.36.34,1.99.4Z"/>
    <path class="cls-2" d="M18.77,434.8s-.03,0-.04,0l-1.19-1.57.17-.1,1.22,1.57c-.04.06-.11.07-.16.1Z"/>
    <path class="cls-17" d="M25.96,435.63l-.83-.99c0,.12-.14.19-.12.04.09-.06.23-.22.34-.12l.81.98c-.04.08-.15.07-.2.1Z"/>
    <path class="cls-50" d="M14.44,447.98c-.02-.12.06-.08.14-.08.24,0,.46.06.7.04l.02-.16h.45s0,.2,0,.2h.44s0,.08,0,.12c-.53-.06-1.08-.06-1.61-.08-.06,0-.11-.04-.14-.04Z"/>
    <path class="cls-16" d="M36.72,438.85c-.15.01-.29-.02-.44-.04-.03,0-.05,0-.08,0l-.24-.26c.3-.05.6.02.75.3Z"/>
    <path class="cls-36" d="M10.36,430.65s.08,0,.06.05l-.38.19-.17-.17.37-.26c.04.06.07.12.12.18Z"/>
    <path class="cls-22" d="M9.99,440.32l-.1-.28.39.05.14.21c-.12.03-.27.02-.4.02-.01,0-.03,0-.04,0Z"/>
    <path class="cls-38" d="M17.89,431.62l-.12-.24.37-.16.1.2c-.13.01-.23.15-.32.2,0,0-.03,0-.04,0Z"/>
    <path class="cls-12" d="M14.32,447.98s.03,0,.04,0c.03.07-.04.15-.04.2h-.2s0,.25,0,.25c0,.05-.06.02-.08.02v-.48c.09,0,.19,0,.28,0Z"/>
    <path class="cls-46" d="M36.72,438.85l.03.02-.15.26c-.1-.1-.24-.19-.32-.32.15.02.29.05.44.04Z"/>
    <path class="cls-19" d="M14.95,442.11c0-.05,0-.11,0-.16h.4s-.02.12-.02.12c-.12.05-.25.03-.37.04Z"/>
    <path class="cls-8" d="M16.42,447.82c-.06.11-.05.31-.24.28,0-.04,0-.08,0-.12,0-.07-.02-.13-.04-.2l.28.04Z"/>
    <path class="cls-20" d="M38.11,440.83c-3,.16-6,.34-9,.52l-2.4.14-4.17,7.33h-.22c-.07.22-.25.41-.35.61-.23.47-.45.85-.73,1.34-.03.06-.17.19-.17.2-.19.02-.42-.08-.48.16-.02,0-.04-.03-.06-.02-.04.01-.06.05-.1.06-.06-.09-.28-.1-.37-.08-.03,0-.03.08-.05.08-.07,0-.22-.06-.35-.05-.08.01-.05.08-.08.08-.12.01-.41-.17-.45.08-.03,0-.08,0-.12,0,0-.03-.05-.11-.04-.16h-.35s6.18-11.4,6.18-11.4l11.4,1.03c.48-.03.96.02,1.43.04.17,0,.34-.09.5.04ZM22.78,444.61c-.08.16-.11.25-.12.44h1.27l.2-.43c.09-.06.4.08.49-.09l2.17-3.83-.08-.04.08-.14h-.32s.16-.3.16-.3l-.08-.04.04-.14-1.27-.12c-.03.1-.16.42-.24.46-.13.06-.41-.03-.46.02l-2.21,4.03.08.04-.04.14c.11,0,.21,0,.32,0ZM23.3,446.16l.16-.26-.08-.04.04-.14c-.24.11-1.16-.04-1.29.08-.06.06-.1.29-.18.34-.11.07-.42.02-.5.1l-2.16,3.99.08.02-.04.12h.28s-.08.36-.08.36l1.24-.08s.17-.34.22-.38c.08-.05.32-.03.43-.07l2.19-3.87c.02-.08-.02-.04-.05-.06-.08-.04-.18-.08-.26-.12Z"/>
    <path class="cls-11" d="M32,453.54v.64s.48.04.48.04v.64l.41.05.06.06c0,.61.01,1.23,0,1.84-.13-.04-.27-.03-.39-.08l-.04-.61-.44-.06v-.63c-.18,0-.35-.05-.52-.08-1.67-.25-3.34-.46-5.01-.71v-1.71c1.81.19,3.64.4,5.44.64Z"/>
    <path class="cls-11" d="M30.64,446.12v1.23s-.44,0-.44,0v.6l-.44-.04v.6c-.22,0-.51-.04-.7-.04h-.75c-.14,0-.41-.03-.58-.04v-.6s-.4,0-.4,0v-.6h-.4s0-1.15,0-1.15c1.23-.02,2.47.03,3.69.04Z"/>
    <path class="cls-28" d="M32,453.54c.18.02.37.08.56.08v.64l.48.04v.64l.48.04v2.54l-.47-.08v-.61s-.06-.02-.08-.02c0,.2,0,.4,0,.6l-.48-.04v-.64l-.47-.08v-.63s-.44-.04-.44-.04v-.64c.17.03.34.08.52.08v.63s.44.06.44.06l.04.61c.13.05.26.05.39.08,0-.61,0-1.23,0-1.84l-.06-.06-.41-.05v-.64l-.48-.04v-.64Z"/>
    <path class="cls-28" d="M30.64,446.12c.18,0,.37,0,.56,0v1.23h-.48v.6h-.44v.6c-.18.03-.35-.03-.52-.04v-.6s.44.04.44.04v-.6h.44s0-1.23,0-1.23Z"/>
    <path class="cls-28" d="M26.95,446.08v1.15s.4,0,.4,0v.6h.4s0,.6,0,.6c-.16-.01-.32-.04-.48-.04v-.56l-.4-.04v-.56h-.4v-1.15c.16,0,.32,0,.48,0Z"/>
    <path class="cls-28" d="M26.55,452.91v1.71c-.13-.02-.3-.02-.44-.04v-1.71c.14.01.29.02.44.04Z"/>
    <path class="cls-20" d="M22.54,448.82v2.42s-.04-.06-.04-.13c-.01-.74.01-1.47,0-2.21l-1.27,2.26c-.05,0-.11,0-.16,0,0-.06-.01-.16,0-.2,0-.01.14-.15.17-.2.28-.48.5-.87.73-1.34.09-.19.28-.39.35-.61h.22Z"/>
    <path class="cls-50" d="M22.58,436.82c.04.09.15.27.24.32l-.68,1.39c-.09.06-.3-.32-.34-.32l-1.59,3.1c-.05.16.26.32.25.45l-.86,1.68.25.41-1.06,2.06-.32-.36c-.38.77-.75,1.55-1.15,2.3-.08.15-.2.3-.24.48l-.08-.02-.22-.33c-.07.09-.09.22-.14.32-.03.06-.23.44-.26.44-.06-.11-.06-.09-.14-.12-.03-.01-.07-.04-.08-.04,0-.16,0-.32,0-.48.19.03.18-.17.24-.28.11-.2.22-.4.34-.6.07.1.12.23.2.32.04.04.04.06.08,0l1.37-2.74c.08-.06.24.27.3.32.02,0,.2-.32.23-.37.03-.06.22-.42.22-.44,0-.07-.3-.29-.25-.42l1.05-2.05-.25-.37,2.01-4.09.36.36.44-.95s.06.04.08.04Z"/>
    <path class="cls-25" d="M18.17,447.9s.08-.02.08.02l.04,3.47h.24c-.08,1.93.06,3.91,0,5.84-.08.02-.2.09-.36.08l-.04-4.09c0-.3,0-.61,0-.91l.04-4.41Z"/>
    <path class="cls-52" d="M18.17,447.9l-.04,4.41c0-.44,0-.88,0-1.33l-.08-.02v-.16s-.16,0-.16,0v-.64h-.2s0-.32,0-.32h-.16s-.02-.28-.02-.28l-.18-.04v-.6h-.36s0-.32,0-.32h-.2s.1-.38-.12-.32c.05-.09.07-.23.14-.32l.22.33.08.02c.04-.18.16-.32.24-.48.26.03.58,0,.83.04Z"/>
    <path class="cls-42" d="M24.21,437.02c.09.1.19.21.28.32-.2,0-.41-.02-.61-.04s-.92-.09-1.06-.15c-.09-.04-.2-.23-.24-.32.55.03,1.09.13,1.63.2Z"/>
    <path class="cls-42" d="M35.37,438.45c-.47-.16-1.14.04-1.43-.44.49.07,1.12-.03,1.43.44Z"/>
    <path class="cls-56" d="M15.55,435.55s.04.12,0,.14l-.32.18.06.16-.38.22-.15-.24.15-.12-.16-.3.17-.08.21.23c.09-.01.34-.25.41-.2Z"/>
    <polygon class="cls-56" points="13.76 433.81 13.84 433.96 13.5 434.16 13.56 434.32 13.16 434.5 13.01 434.24 13.16 434.14 13.01 433.89 13.18 433.81 13.38 434.04 13.76 433.81"/>
    <polygon class="cls-56" points="11.46 432.06 11.26 432.16 11.42 432.39 11.26 432.46 11.38 432.75 11.24 432.85 11.06 432.63 11.22 432.51 11.1 432.24 11.22 432.12 11.1 431.92 11.27 431.82 11.46 432.06"/>
    <polygon class="cls-56" points="16.54 436.66 16.4 436.74 16.42 436.86 16.7 436.78 16.74 436.94 16.34 437.14 16.19 436.88 16.34 436.73 16.19 436.49 16.36 436.35 16.54 436.66"/>
    <polygon class="cls-56" points="15.15 436.95 15.21 437.06 15.43 436.94 15.51 437.1 15.07 437.3 14.91 437.02 15.15 436.95"/>
    <path class="cls-56" d="M16.78,435l.04.16c-.3.12-.33.29-.56-.06l.18-.13c.14.17.17.08.34.03Z"/>
    <path class="cls-56" d="M14.87,434.24l.06.12c.14-.05.19-.13.3.02l-.37.21-.18-.21.19-.14Z"/>
    <polygon class="cls-56" points="12.73 433.17 12.94 433.09 13.01 433.21 12.67 433.4 12.49 433.15 12.67 433.05 12.73 433.17"/>
    <path class="cls-56" d="M17.06,436.54c-.16.02-.45.37-.46.08l.29-.19c.06-.04.19.09.17.11Z"/>
    <path class="cls-56" d="M15.3,433.81c.08,0,.15.15.31,0l.06.13-.14.09-.12-.11-.19.08-.06-.1s.11-.09.15-.09Z"/>
    <path class="cls-56" d="M13.95,435.35l-.13.08-.12-.11-.15.08-.1-.1c.17-.21.26.08.46-.1l.05.15Z"/>
    <path class="cls-56" d="M12.25,432.42v.18c-.06,0-.33.26-.36.12-.04-.16.27-.2.36-.3Z"/>
    <path class="cls-56" d="M12.67,432.35l.1.09s-.38.31-.44.16c-.02-.08.28-.2.34-.25Z"/>
    <polygon class="cls-56" points="11.81 432.53 11.84 432.65 11.46 432.85 11.43 432.73 11.81 432.53"/>
    <path class="cls-56" d="M21.75,435.03l.41-.19.06.14s-.23.17-.26.18c-.09.02-.19-.15-.31,0,.07.26.22-.08.34.14l-.33.21c-.36-.25-.08-.28-.07-.34.02-.09-.2-.24-.16-.3.08-.1.32.01.32.15Z"/>
    <path class="cls-56" d="M19.57,433.49c-.05.09.11.21.17.27l.32-.19c.05-.03.09.09.09.1,0,.03-.39.33-.45.11l-.18.11-.16-.26.15-.12-.16-.26c.09-.02.13-.07.22,0,.22.19,0,.22-.01.24Z"/>
    <path class="cls-56" d="M25.04,436.11s.24-.21.28-.06c.05.18-.43.38-.51.07.15-.3.2-.04.24-.01Z"/>
    <polygon class="cls-56" points="23.38 435.39 23.56 435.31 23.65 435.41 23.3 435.63 23.14 435.37 23.31 435.27 23.38 435.39"/>
    <path class="cls-56" d="M21.31,434.08l.04.15-.3.16-.21-.21c.17-.2.26.07.48-.1Z"/>
    <path class="cls-56" d="M21.03,433.52s-.36.23-.39.1c-.02-.09.28-.2.34-.26.05.03.08.1.05.15Z"/>
    <path class="cls-56" d="M20.46,433.5c.08-.02.13.01.13.09-.11.07-.35.3-.4.08,0-.02.24-.16.27-.17Z"/>
    <polygon class="cls-56" points="19.49 433.17 19.32 432.93 19.5 432.86 19.68 433.07 19.49 433.17"/>
    <path class="cls-50" d="M13.76,448.98c0,.17,0,.34,0,.52-.09,0-.19,0-.28,0,0-.17,0-.34,0-.52.09,0,.19,0,.28,0Z"/>
    <path class="cls-54" d="M13.44,449.49s.03,0,.04,0c0,.16,0,.32,0,.48-.09,0-.19,0-.28,0,0-.07,0-.13,0-.2h.12s0-.28,0-.28h.12Z"/>
    <path class="cls-50" d="M14.32,448.18c0,.1,0,.21,0,.32h-.28s0,.52,0,.52c-.08.02-.17-.03-.24-.04v-.28s.16,0,.16,0v-.2s.06-.03.08-.04c.02,0,.07.02.08-.02v-.25s.2,0,.2,0Z"/>
    <path class="cls-12" d="M13.96,448.5v.2s-.16,0-.16,0v.28s-.03,0-.04,0c0-.17,0-.34,0-.52.07.03.12.04.2.04Z"/>
    <path class="cls-12" d="M13.44,449.49h-.12s0,.28,0,.28h-.12c0-.11,0-.21,0-.32.09-.04.2.04.24.04Z"/>
    <path class="cls-25" d="M20.59,451.12s.07.04.08.08v5.76h-.52l-1.19.24c.08-1.92-.03-3.91,0-5.84,0-.02.04-.06.04-.08.04,0,.09,0,.12,0,.27.06.9,0,1.21-.04.08,0,.08-.07.1-.08.03-.02.06-.05.1-.06.02,0,.04.02.06.02Z"/>
    <path class="cls-23" d="M18.96,451.36c-.03,1.93.08,3.92,0,5.84,0,.04,0,.08,0,.12-.1-.02-.36-.1-.44-.08.06-1.93-.08-3.91,0-5.84,0-.01,0-.03,0-.04h.44Z"/>
    <path class="cls-45" d="M21.23,451.16v5.64c-.05,0-.11,0-.16,0,.05-1.86-.1-3.79,0-5.64.05,0,.11,0,.16,0Z"/>
    <path class="cls-26" d="M21.07,456.8c0,.09,0,.19,0,.28-.14,0-.26.04-.4.04v-.24c.13-.03.27-.05.4-.08Z"/>
    <path class="cls-14" d="M20.67,456.96v.16c-.14,0-.32-.05-.46-.08-.08-.02-.14.04-.06-.08h.52Z"/>
    <path class="cls-46" d="M16.18,448.58s.05.03.08.04v.23s.24.05.24.05c0,.05.1.29.13.31.06.02.13,0,.19,0,0,.09,0,.19,0,.28s0,.19,0,.28c.05,0,.12-.01.16,0,.04,0,.09.07.16.04v.52c.07,0,.13,0,.2,0,0,.04,0,.08,0,.12.11.05.12-.07.15-.08.1-.02.23.01.33,0,0,.18,0,.37,0,.56-.09,0-.19,0-.28,0v.12s.16,0,.16,0v3.02l-.16-.04c0,.05,0,.11,0,.16-.03.16-.07.27-.02.44-.01.02-.16.08-.18.08-.07,0-.13-.04-.2-.04v.48c-.07.07-.18.04-.23.09-.1.1-.08.34-.09.47,0,.17,0,.35,0,.52-.11,0-.21-.02-.32-.04,0-.08,0-.16,0-.24.05,0,.11,0,.16,0v-.28s-.16,0-.16,0c0,.09,0,.19,0,.28-.05,0-.12-.07-.2-.04v.24s-.08-.04-.12,0l-1.55-.28-.02-.28-.3-.08v-.25c-.22-.05-.17-.15-.16-.34h-.16s0-.32,0-.32h-.16s0-.25,0-.25l-.16-.07v-.27s-.16,0-.16,0v-.6h-.16s-.04-2.78-.04-2.78l.16.04v-.56h.16s0-.28,0-.28h.16s0-.28,0-.28l.16.04v-.28s.16,0,.16,0v-.28s.16,0,.16,0v-.28s.32,0,.32,0v-.28c.49.11,1.11.01,1.59.12ZM15.79,450.01c0-.11,0-.21,0-.32l-.68-.04v.28s-.36-.04-.36-.04v.24s-.04.04-.04.04h-.28c.01.09-.01.2,0,.28-.06.02-.15-.05-.16.06-.01.16,0,.33,0,.5l-.16-.04c0,.18,0,.37,0,.56-.1,0-.12.03-.16.04-.06,0-.13,0-.2,0v2s.15.04.2.06c.01,0,.08.04.08.04,0,0-.01.08.04.12v.35s.24.05.24.05c.01.05.03.15.04.2.01.09-.03.26.02.32l.3.08v.51s1.2.2,1.2.2c0-.09,0-.19,0-.28.09.02.18.04.28.04,0-.09,0-.19,0-.28.01,0,.03,0,.04,0,.04,0,.08.03.12.04v-.32s.16.04.16.04c0-.07,0-.13,0-.2,0-.12,0-.25,0-.37,0-.02.06-.06.08-.07,0,0,.1-.04.12-.04.04-.01.11,0,.16,0,0-.25,0-.5,0-.75,0-.18,0-.37,0-.56.05,0,.11,0,.16,0v-1.72s-.15-.07-.15-.07v-.27s-.2-.05-.2-.05v-.27c-.13,0-.24-.02-.36-.04,0-.09.01-.18,0-.27-.16-.06-.32-.03-.47-.04Z"/>
    <path class="cls-55" d="M16.3,456.12c.07,0,.13.03.2.04,0,.11,0,.21,0,.32,0,.06,0,.13,0,.2h-.31s0-.02,0-.04v-.52s.08,0,.12,0Z"/>
    <path class="cls-12" d="M14.4,456.2c.05.13.05.05.08.08,0,0-.02.06.05.09.14.06.43.08.59.11v.2c-.24-.09-.5-.11-.75-.16,0-.09,0-.19,0-.28,0-.02.02-.04.04-.04Z"/>
    <path class="cls-12" d="M12.97,453.46c.26.07.26.29.24.52h-.24c0-.17,0-.34,0-.52Z"/>
    <path class="cls-50" d="M13.76,455.41c0-.09,0-.19,0-.28l.31.04v.51s.28.05.28.05c.01.1,0,.21,0,.32h-.2s0-.29,0-.29c0-.05-.07-.02-.08-.02-.02-.02-.06-.07-.08-.08v-.24s-.24,0-.24,0Z"/>
    <path class="cls-50" d="M13.48,454.5h-.12s-.02-.28-.02-.28l-.14-.04c0-.05,0-.11,0-.16l.26.04.02.44Z"/>
    <path class="cls-12" d="M14.08,455.73s.07-.02.08.02v.29s.2,0,.2,0c0,.04.02.12.04.16-.02,0-.04.02-.04.04l-.27-.04v-.47Z"/>
    <path class="cls-50" d="M13.52,454.58c.06-.02.21,0,.23.07v.45s-.05,0-.07,0v-.25s-.14-.06-.14-.06l-.02-.2Z"/>
    <path class="cls-12" d="M13.52,454.58l.02.2.14.06v.25s-.09,0-.13,0l-.06-.06c0-.08-.05-.42.03-.45Z"/>
    <path class="cls-12" d="M13.2,454.18l.14.04.02.28h.12c-.32.15-.28-.08-.28-.32Z"/>
    <path class="cls-12" d="M13.76,455.41h.24s0,.24,0,.24c-.2-.07-.22.11-.24-.24Z"/>
    <path class="cls-3" d="M18.61,451.12h.35c0,.05.04.13.04.16,0,.02-.04.06-.04.08h-.44c0-.06,0-.11,0-.17l.08-.07Z"/>
    <path class="cls-52" d="M18.17,457.32c-.63-.05-1.34-.36-1.99-.4,0-.07,0-.13,0-.2,0-.01,0-.03,0-.04h.31c.01-.07,0-.13,0-.2l.32.08v-.28s.2,0,.2,0v-.28s.16.04.16.04v-.28s.36.04.36.04v-.6l.16.04v-.32s.2.04.2.04v-.6l.2.04c0-.05,0-.11,0-.16.07-.33.04-.69.04-1.03l.04,4.09Z"/>
    <path class="cls-12" d="M16.18,456.72c0,.07,0,.13,0,.2,0,.03,0,.05,0,.08l-1.11-.22c.19-.07.36-.06.56-.02v-.16s.56.12.56.12Z"/>
    <path class="cls-30" d="M19.36,450.25l2.12-3.89.46-.06.26-.42h1.13l-.12.28s.06,0,.08,0c.09.04.18.07.26.12.03.02.07-.02.05.06l-2.19,3.87c-.1.04-.35.02-.43.07-.06.03-.18.37-.22.38l-1.24.08.08-.36h-.28s.04-.12.04-.12Z"/>
    <path class="cls-34" d="M22.78,444.61c-.11,0-.21,0-.32,0l.04-.14-.08-.04,2.21-4.03s.32.05.46-.02c.08-.04.21-.36.24-.46l1.27.12-.04.14.08.04-.16.3h.32s-.08.14-.08.14l.08.04-2.17,3.83c-.08.16-.4.03-.49.09l-.2.43h-1.27c0-.19.04-.27.12-.44.03,0,.05,0,.08,0l-.12.28h1.19l.2-.38.43-.03,2.11-3.75c.03-.12-.24-.03-.28-.06l.04-.14-.08-.04.16-.3-1.17-.08-.23.43-.49.05-2.08,3.79c-.04.12.27.03.32.06-.02.05-.05.11-.08.16Z"/>
    <path class="cls-34" d="M19.36,450.25l-.08-.02,2.16-3.99c.08-.07.38-.03.5-.1.07-.05.12-.28.18-.34.13-.12,1.06.03,1.29-.08l-.04.14.08.04-.16.26s-.05,0-.08,0l.12-.28h-1.13l-.26.42-.46.06-2.12,3.89Z"/>
    <path class="cls-20" d="M20.43,451.16s-.02.07-.1.08c-.31.04-.95.1-1.21.04.04-.25.33-.06.45-.08.03,0,0-.07.08-.08.13-.02.28.05.35.05.03,0,.02-.07.05-.08.09-.02.31-.02.37.08Z"/>
    <path class="cls-15" d="M21.07,450.96s0,.14,0,.2c-.13,0-.28-.02-.4.04-.01-.04-.04-.06-.08-.08.06-.24.29-.14.48-.16Z"/>
    <path class="cls-29" d="M18.09,454.26s0,.11,0,.16l-.2-.04v.6l-.2-.04v.32s-.16-.04-.16-.04v.6l-.36-.04v.28s-.16-.04-.16-.04v.28s-.2,0-.2,0v.28s-.32-.08-.32-.08c0-.11,0-.21,0-.32-.07-.01-.13-.03-.2-.04v-.24c.07-.03.15.03.2.04,0,.08,0,.16,0,.24.1.02.21.05.32.04,0-.17,0-.35,0-.52l.32.04v-.52s.36.04.36.04v-.52s.32.04.32.04c0-.18,0-.37,0-.56.09.01.18.06.28.04Z"/>
    <path class="cls-29" d="M16.66,448.3c.22-.06.07.28.12.32h.2s0,.32,0,.32h.36s0,.6,0,.6l.18.04.02.28h.16s0,.32,0,.32h.2s0,.64,0,.64h.16s0,.16,0,.16c-.08,0-.16-.03-.24-.04.01,1.1,0,2.2,0,3.3-.09-.01-.19-.02-.28-.04,0-.05,0-.11,0-.16l.16.04v-3.02h-.16s0-.12,0-.12c.09,0,.19,0,.28,0,0-.18,0-.37,0-.56-.1.01-.23-.02-.33,0-.03,0-.03.13-.15.08,0-.04,0-.08,0-.12.04,0,.08,0,.12,0v-.51s-.32-.04-.32-.04v-.56c-.11,0-.21,0-.32,0,0-.18,0-.37,0-.56h-.32c0,.08-.01.16,0,.24l-.23-.05v-.23c.07.03.08,0,.13.12.03,0,.23-.38.26-.44Z"/>
    <path class="cls-50" d="M17.81,454.22c0,.18,0,.37,0,.56l-.32-.04v.52s-.36-.04-.36-.04v.52s-.32-.04-.32-.04c0-.13,0-.37.09-.47.05-.05.16-.02.23-.09.07-.08.03-.18.04-.28l.14.04.02-.2s.17-.06.18-.08c-.05-.17-.01-.28.02-.44.09.02.19.02.28.04Z"/>
    <path class="cls-50" d="M18.05,450.96c.04.05-.03,1.1,0,1.29,0,.06.01.09.08.06,0,.3,0,.61,0,.91-.07.02-.04.12-.04.18,0,.28,0,.57,0,.85-.1.02-.19-.02-.28-.04,0-1.1.01-2.2,0-3.3.08,0,.16.03.24.04Z"/>
    <path class="cls-12" d="M18.05,450.96l.08.02c0,.44,0,.89,0,1.33-.07.03-.07,0-.08-.06-.02-.19.04-1.24,0-1.29Z"/>
    <path class="cls-23" d="M21.07,451.16c-.1,1.85.05,3.78,0,5.64-.13.02-.27.05-.4.08v-5.68c.12-.06.27-.04.4-.04Z"/>
    <path class="cls-49" d="M15.19,450.13c.11,0,.49.04.6.08.13.05.07.07.08.08v.44c-.38-.04-.86-.11-1.23-.12,0-.1.03-.37.08-.44l.04-.04c.15.09.33,0,.44,0Z"/>
    <path class="cls-39" d="M14.75,450.13v-.24s.36.04.36.04v-.28s.68.04.68.04c0,.11,0,.21,0,.32.16.01.32-.02.47.04.02.09,0,.18,0,.27.12.02.24.04.36.04v.27s.19.05.19.05v.27s.17.07.17.07v1.72c-.05,0-.11,0-.16,0,0-.28,0-.56,0-.83,0-.2,0-.41,0-.61l-.19-.07v-.27s-.13-.04-.16-.05c0-.09,0-.19,0-.28h-.15c-.03-.11-.04-.21-.04-.32-.05,0-.11,0-.16,0-.04,0-.23-.03-.24-.04-.01,0,.05-.03-.08-.08v-.2c-.14-.01-.62-.16-.6.12-.1,0-.29.09-.44,0Z"/>
    <path class="cls-39" d="M16.46,450.92c0,.13,0,.27,0,.4h-.28s0-.09,0-.12h.12s0-.28,0-.28c.05,0,.11,0,.16,0Z"/>
    <path class="cls-40" d="M14.63,454.42c0,.09-.02.19.02.28.02.02.24.06.3.08,0,.01,0,.03,0,.04,0,.08,0,.16,0,.24.31.04.61.11.91.16,0,.09,0,.19,0,.28l-1.19-.2v-.51s-.3-.08-.3-.08c-.04-.06,0-.23-.02-.32.09.02.19.03.28.04Z"/>
    <path class="cls-40" d="M13.96,451.56v2.07c-.05-.02-.19-.02-.2-.06v-2c.07,0,.14,0,.2,0Z"/>
    <path class="cls-37" d="M16.82,452.75c0,.18,0,.37,0,.56l-.2.02.04.73s-.11.04-.12.04c0-.03-.04-.06-.04-.08-.03-.31,0-.71,0-1.03h.12s0-.28,0-.28c.07-.01.14.03.2.04Z"/>
    <path class="cls-33" d="M14.63,453.74v.12c-.05-.01-.1,0-.16-.04,0,.15-.05.34.16.32,0,.09,0,.19,0,.28-.09-.01-.19-.02-.28-.04,0-.04-.03-.14-.04-.2,0-.03,0-.06-.02-.08-.28-.02-.03-.33-.22-.32-.05-.04-.03-.11-.04-.12.03,0,.04-.04.04-.04.17.02.39.1.56.12Z"/>
    <path class="cls-48" d="M14.12,451.52s0,.05,0,.08c-.12-.02-.08.06-.08.14-.02.63.07,1.26.04,1.89,0,0-.01.04-.04.04,0,0-.07-.03-.08-.04v-2.07s.06-.04.16-.04Z"/>
    <path class="cls-4" d="M14.95,454.77c.15.03.33.02.48.08v-.28s.2,0,.2,0v.32c.09-.02.16.02.24.04.08.02.19.02.28.04,0,.09,0,.19,0,.28-.09,0-.19-.02-.28-.04,0-.08,0-.16,0-.23l-.91-.16s0-.03,0-.04Z"/>
    <path class="cls-54" d="M16.5,448.9c-.01-.07,0-.16,0-.24h.32c0,.18,0,.37,0,.56-.06,0-.13.01-.19,0-.03-.02-.12-.26-.13-.31Z"/>
    <path class="cls-50" d="M16.82,449.21c.11,0,.21,0,.32,0v.56l.31.04v.51s-.08,0-.11,0c0-.07,0-.13,0-.2h-.16s-.04-.32-.04-.32c-.07.03-.12-.03-.16-.04v-.28s-.16,0-.16,0c0-.09,0-.19,0-.28Z"/>
    <path class="cls-40" d="M16.82,453.3c0,.25,0,.5,0,.75-.05,0-.12-.01-.16,0l-.04-.73.2-.02Z"/>
    <path class="cls-39" d="M14.44,450.44s.09.1.08.16c-.13.04-.15.34-.16.48-.01.16,0,.32,0,.48-.09,0-.2-.04-.24-.04,0-.18,0-.37,0-.56l.16.04c0-.16-.01-.33,0-.5,0-.11.1-.04.16-.06Z"/>
    <path class="cls-47" d="M16.5,454.02s.04.05.04.08c-.02,0-.07.05-.08.07,0,.12,0,.25,0,.37l-.28-.04v.48s-.03,0-.04,0c0-.16,0-.32,0-.48,0-.05,0-.09.04-.12l.12.04c0-.14,0-.29,0-.44.06,0,.13.04.2.04Z"/>
    <path class="cls-6" d="M14.71,450.17c-.05.07-.07.34-.08.44-.03,0-.09,0-.12,0,0-.06-.07-.13-.08-.16-.02-.08.01-.19,0-.28h.28Z"/>
    <path class="cls-39" d="M16.46,454.54c0,.07,0,.13,0,.2l-.16-.04v.32s-.08-.03-.12-.04v-.48s.28.04.28.04Z"/>
    <path class="cls-12" d="M17.14,449.81l.04.32h.16c0,.07,0,.13,0,.2-.07,0-.13,0-.2,0v-.52Z"/>
    <path class="cls-12" d="M17.34,454.69l-.02.2-.14-.04c0,.1.03.2-.04.28v-.48c.07,0,.13.04.2.04Z"/>
    <path class="cls-40" d="M14.08,453.78c.19,0-.06.3.22.32.02.02.01.06.02.08l-.23-.05v-.35Z"/>
    <path class="cls-12" d="M16.82,449.49h.16s0,.28,0,.28c-.04-.01-.11,0-.16,0,0-.09,0-.19,0-.28Z"/>
    <path class="cls-12" d="M16.5,455.93c0-.09,0-.19,0-.28h.16s0,.28,0,.28c-.05,0-.11,0-.16,0Z"/>
    <path class="cls-12" d="M18.09,454.26c0-.28,0-.57,0-.85,0-.05-.03-.16.04-.18,0,.35.03.7-.04,1.03Z"/>
    <path class="cls-12" d="M22.78,444.61c.03-.05.05-.11.08-.16-.04-.03-.35.06-.32-.06l2.08-3.79.49-.05.23-.43,1.17.08-.16.3.08.04-.04.14s.31-.06.28.06l-2.11,3.75-.43.03-.2.38h-1.19l.12-.28s-.05,0-.08,0Z"/>
    <path class="cls-41" d="M15.87,450.72c0,.24,0,.48,0,.71-.02,0-.05,0-.08,0,0-.09,0-.18,0-.27l-.35-.04v.28s-.16,0-.16,0v.28s-.16-.04-.16-.04c0,.2,0,.4,0,.6,0,.09,0,.19,0,.28-.11-.01-.21-.05-.32-.04v.56s-.16,0-.16,0c0,.07,0,.13,0,.2,0,.03,0,.05,0,.08l-.16-.04c0-.21-.04-.39-.04-.57,0-.38.01-.76,0-1.13-.03,0-.05,0-.08,0,0-.16-.01-.32,0-.48l.28.04c0-.17-.01-.35,0-.52.37,0,.85.08,1.23.12Z"/>
    <path class="cls-43" d="M15.79,450.01v.2c-.11-.04-.48-.08-.6-.08-.02-.28.46-.13.6-.12Z"/>
    <path class="cls-43" d="M16.1,450.33c0,.14-.01.29,0,.44-.08.01-.16-.03-.24-.04v-.44s.2.03.24.04Z"/>
    <path class="cls-40" d="M16.5,451.87c.11.01.21.01.32.04,0,.28,0,.56,0,.83-.06,0-.13-.05-.2-.04v.28s-.12,0-.12,0c0-.37,0-.74,0-1.11-.18-.02-.37-.04-.56-.08l.16-.04v-.28s.36.04.36.04c0-.07,0-.13,0-.2.07.02.04.45.04.56Z"/>
    <path class="cls-46" d="M16.46,450.92s.14.03.15.05v.27s.2.07.2.07c.01.2,0,.41,0,.61-.1-.03-.21-.03-.32-.04,0-.11.03-.53-.04-.56,0-.13,0-.27,0-.4Z"/>
    <path class="cls-46" d="M16.26,450.33c0,.11,0,.21.04.31h.15c0,.1,0,.19,0,.28-.05,0-.11,0-.16,0v.28s-.12,0-.12,0c0,0-.04,0-.04-.04.04-.14-.03-.29-.04-.4-.01-.14,0-.29,0-.44.05,0,.11,0,.16,0Z"/>
    <path class="cls-37" d="M14.95,454.81l.91.16c.01.08,0,.16,0,.23-.3-.05-.61-.12-.91-.16,0-.08,0-.16,0-.24Z"/>
    <path class="cls-1" d="M14.63,454.42c.1.02.2.06.32.04,0,.11,0,.21,0,.32-.06-.01-.28-.05-.3-.08-.03-.09-.01-.19-.02-.28Z"/>
    <path class="cls-39" d="M16.5,454.02c-.07,0-.14-.03-.2-.04,0-.05,0-.11,0-.16l.16.04v-.82s.04-.06.04-.06c0,.32-.03.72,0,1.03Z"/>
    <path class="cls-46" d="M16.5,451.87c0,.37,0,.74,0,1.11l-.04.06v.82s-.16-.04-.16-.04c0,.05,0,.11,0,.16-.04,0-.08,0-.12,0v.4s-.04.07-.04.12l-.28-.04v.48c-.07-.02-.15-.06-.24-.04v-.32s-.2,0-.2,0v.28c-.15-.06-.33-.05-.48-.08,0-.11,0-.21,0-.32-.11.02-.21-.02-.32-.04,0-.09,0-.19,0-.28s0-.19,0-.28c.04,0,.11-.02.14.04l.02.28.64.08v-.28s.2.04.2.04v-1.13s-.11-.06-.12-.07l.04-.02c0-.18,0-.36,0-.54.24.02.29.12.28-.24l.12-.02v-.22c.18.04.37.06.55.08Z"/>
    <path class="cls-43" d="M15.51,452.83s.12.05.12.07v1.13s-.2-.04-.2-.04v.28s-.64-.08-.64-.08l-.02-.28c-.03-.05-.1-.03-.14-.04v-.12c.1.01.21,0,.32.04,0-.15,0-.29,0-.44,0-.03,0-.05,0-.08.1.01.21,0,.32.04v-.48c.07.01.17-.01.24,0Z"/>
    <path class="cls-39" d="M14.12,451.6c0,.63,0,1.27,0,1.9l.36.04c0-.09,0-.19,0-.28l.16.04c0,.09,0,.19,0,.28h.16s0-.26,0-.26l.16.02c0,.15,0,.29,0,.44-.11-.04-.22-.03-.32-.04-.17-.02-.39-.1-.56-.12.03-.63-.06-1.26-.04-1.89,0-.08-.04-.16.08-.14Z"/>
    <path class="cls-40" d="M14.63,453.86c0,.09,0,.19,0,.28-.21.02-.16-.16-.16-.32.05.03.11.03.16.04Z"/>
    <path class="cls-46" d="M14.36,451.56s.05,0,.08,0c0,.38-.01.76,0,1.13,0,.19.05.36.04.57,0,.09,0,.19,0,.28l-.36-.04c0-.63,0-1.27,0-1.9,0-.03,0-.05,0-.08.04,0,.15.03.24.04Z"/>
    <path class="cls-40" d="M16.14,454.5c0,.16,0,.32,0,.48-.09-.02-.19-.02-.28-.04v-.48s.28.04.28.04Z"/>
    <path class="cls-49" d="M14.63,450.6c-.01.17,0,.35,0,.52l-.28-.04c0-.13.03-.44.16-.48.03,0,.08,0,.12,0Z"/>
    <path class="cls-40" d="M16.3,453.98c0,.14,0,.29,0,.44l-.12-.04v-.4s.08,0,.12,0Z"/>
    <path class="cls-46" d="M15.11,452.23c0-.2,0-.4,0-.6l.16.04v-.28s.16,0,.16,0v-.28s.35.04.35.04c.01.09,0,.18,0,.27s0,.19,0,.28l-.2.04c.04.09-.03.19-.04.24l-.28-.04c0,.09,0,.19,0,.28-.05,0-.11,0-.16,0Z"/>
    <path class="cls-39" d="M15.11,452.51v.24s-.11,0-.16,0c0,.17,0,.34,0,.52-.09-.01-.2-.07-.32-.04,0-.07,0-.13,0-.2h.16s0-.56,0-.56c.11-.01.21.03.32.04Z"/>
    <path class="cls-49" d="M16.1,450.76c0,.11.08.26.04.4h-.2s0,.32,0,.32c0,.01-.06-.03-.08-.04,0-.24,0-.48,0-.71.07,0,.15.05.24.04Z"/>
    <path class="cls-33" d="M14.95,453.26s0,.05,0,.08l-.16-.02v.26s-.16,0-.16,0c0-.09,0-.19,0-.28,0-.03,0-.05,0-.08.12-.03.22.03.32.04Z"/>
    <path class="cls-21" d="M15.27,452.23c0,.09,0,.19,0,.28-.05,0-.11,0-.16,0,0-.09,0-.19,0-.28.05,0,.11,0,.16,0Z"/>
    <path class="cls-39" d="M15.87,451.44c0,.12,0,.24,0,.36l-.28-.04.2-.04c0-.09,0-.19,0-.28.03,0,.06,0,.08,0Z"/>
    <path class="cls-24" d="M16.14,451.16s.04.04.04.04c0,.03-.01.08,0,.12h.28c0,.07,0,.14,0,.2l-.36-.04v.28s-.16.04-.16.04v.22s-.11.02-.11.02c0,.36-.04.26-.28.24,0-.09,0-.19,0-.28,0-.05.08-.15.04-.24l.28.04c0-.12,0-.24,0-.36.02,0,.07.05.08.04v-.32s.2,0,.2,0Z"/>
    <path class="cls-40" d="M15.55,452.27c0,.18,0,.36,0,.54l-.04.02-.24-.04c0-.09,0-.19,0-.28s0-.19,0-.28c.1.01.18.03.28.04Z"/>
    <path class="cls-49" d="M15.11,452.75s.1.07.16.08v.48c-.11-.04-.22-.03-.32-.04,0-.17,0-.34,0-.52.05,0,.11,0,.16,0Z"/>
    <path class="cls-31" d="M15.27,452.51c0,.09,0,.19,0,.28l.24.04c-.07-.01-.17.01-.24,0-.06-.01-.13-.07-.16-.08v-.24c.05,0,.11,0,.16,0Z"/>
    <path class="cls-39" d="M15.55,451.99c0,.09,0,.19,0,.28-.1,0-.18-.03-.28-.04,0-.09,0-.19,0-.28l.28.04Z"/>
  </g>
  <g>
    <path class="cls-9" d="M15.84,467.36v-1.02l-.92-.92H5.68v-1.83h9.99l2,2v1.77h-1.83ZM5.68,472.26v-6.1h1.83v4.27h10.16v1.83H5.68Z"/>
    <path class="cls-9" d="M29.04,472.26v-3.25h-8.16l-2-2v-3.42h1.83v2.66l.92.92h7.4v-3.59h1.83v8.67h-1.83ZM18.88,472.26v-3.25h1.83v3.25h-1.83Z"/>
    <path class="cls-9" d="M32.08,472.26v-8.67h1.82v8.67h-1.82Z"/>
    <path class="cls-9" d="M45.27,467.36v-1.02l-.92-.92h-9.23v-1.83h9.99l2,2v1.77h-1.83ZM35.11,472.26v-6.1h1.83v4.27h10.16v1.83h-11.99Z"/>
    <path class="cls-9" d="M58.47,472.26v-1.73l-1.52-1.52h-3.56l-3.24,3.25h-1.83v-8.67h1.83v6.07l6.07-6.07h4.09v1.83h-3.32l-1.76,1.75h2.49l2.59,2.6v2.48h-1.83Z"/>
    <path class="cls-9" d="M61.51,465.42v-1.83h11.99v1.83h-11.99ZM61.51,472.26v-6.1h1.83v1.02h5.01v1.83h-5.01v1.42h10.16v1.83h-11.99Z"/>
    <path class="cls-9" d="M84.87,472.26l-6.84-6.84h-3.32v-1.83h4.08l6.08,6.07v-6.07h1.83v8.67h-1.83ZM74.71,472.26v-6.1h1.83v6.1h-1.83Z"/>
    <path class="cls-9" d="M19.88,486.66l-2-2v-1.79h1.83v1.02l.92.94h6.64l-1.42-1.42h-4.75l-3.24-3.24v-2.18h9.99l2,2v1.77h-1.83v-1.02l-.92-.92h-6.99l1.76,1.75h4.75l3.24,3.25v1.83h-9.99Z"/>
    <path class="cls-9" d="M38.02,486.66l-1.08-1.09-1.08,1.09h-4.79v-8.67h1.83v6.84h2.18l.92-.94v-5.9h1.83v5.9l.94.94h2.45v-6.84h1.83v8.67h-5.05Z"/>
    <path class="cls-9" d="M44.28,486.66v-8.67h1.82v8.67h-1.82Z"/>
    <path class="cls-9" d="M57.46,486.66v-6.84h-2.45l-.92.92v5.91h-1.83v-5.91l-.94-.92h-2.18v6.84h-1.83v-8.67h4.79l1.08,1.08,1.08-1.08h5.05v8.67h-1.83Z"/>
    <path class="cls-9" d="M70.66,486.66v-6.84h-2.45l-.92.92v5.91h-1.83v-5.91l-.94-.92h-2.18v6.84h-1.83v-8.67h4.79l1.08,1.08,1.08-1.08h5.05v8.67h-1.83Z"/>
    <path class="cls-9" d="M73.7,479.82v-1.83h11.99v1.83h-11.99ZM73.7,486.66v-6.1h1.83v1.02h5.01v1.83h-5.01v1.42h10.16v1.83h-11.99Z"/>
    <path class="cls-9" d="M97.05,486.66v-1.73l-1.15-1.16h-7.17v2.89h-1.82v-6.1h1.82v1.38h7.4c.62-.61.31-.3.92-.92v-.26l-.92-.92h-9.22v-1.83h9.99l1.99,2v1.79l-1.2,1.2c.8.79.41.4,1.2,1.2v2.48h-1.83Z"/>
  </g>
  <g>
    <path class="cls-9" d="M89.14,472.26v-3.44l2-1.99h8.16v-1.4h-10.16v-1.83h11.99v5.07h-9.23l-.92.92v.84h10.16v1.83h-11.99Z"/>
    <path class="cls-9" d="M102.34,472.26v-6.67l2-2h9.99v6.67l-2,2h-9.99ZM105.58,466.84h4.75l1.42-1.42h-6.64l-.92.94v1.88l1.4-1.4ZM112.5,469.5v-2.24l-1.4,1.42h-4.75l-1.76,1.75h6.99l.92-.92Z"/>
    <path class="cls-9" d="M101.34,486.66v-3.44l2-1.99h8.16v-1.4h-10.16v-1.83h11.99v5.07h-9.23l-.92.92v.84h10.16v1.83h-11.99Z"/>
    <path class="cls-9" d="M114.54,486.66v-6.67l2-2h9.99v6.67l-2,2h-9.99ZM117.77,481.24h4.75l1.42-1.42h-6.64l-.92.94v1.88l1.4-1.4ZM124.69,483.9v-2.24l-1.4,1.42h-4.75l-1.76,1.75h6.99l.92-.92Z"/>
  </g>
</svg>